<?xml version="1.0" standalone="no"?>
<!DOCTYPE svg PUBLIC "-//W3C//DTD SVG 20010904//EN"
 "http://www.w3.org/TR/2001/REC-SVG-20010904/DTD/svg10.dtd">
<svg version="1.0" xmlns="http://www.w3.org/2000/svg"
 width="285.000000pt" height="289.000000pt" viewBox="0 0 285.000000 289.000000"
 preserveAspectRatio="xMidYMid meet">

<g transform="translate(0.000000,289.000000) scale(0.100000,-0.100000)"
fill="#000000" stroke="none">
<path d="M1330 2680 c-289 -4 -436 -10 -460 -19 -19 -6 -51 -16 -70 -22 -248
-74 -465 -274 -562 -519 -66 -165 -63 -119 -63 -1057 l0 -851 25 -27 c53 -57
105 -68 168 -36 77 39 72 -17 72 880 0 534 4 818 11 853 48 238 206 422 421
492 101 33 278 48 278 23 0 -6 -24 -44 -54 -84 -81 -108 -142 -244 -165 -368
-7 -40 -12 -340 -13 -895 -3 -806 -2 -836 16 -863 26 -38 66 -57 120 -57 39 0
51 6 86 38 33 32 40 46 40 78 1 21 0 383 0 804 -1 528 3 782 10 820 38 186
128 330 260 420 81 55 131 76 265 110 126 32 320 -12 455 -103 51 -34 154
-138 174 -176 86 -163 96 -200 96 -348 0 -100 -6 -140 -30 -198 -4 -11 -14
-36 -21 -55 -13 -35 -61 -113 -86 -138 -7 -8 -18 -22 -23 -32 -16 -30 -130
-111 -207 -147 -123 -57 -113 -80 -113 263 0 337 -5 370 -59 414 -62 52 -159
36 -201 -33 -19 -31 -20 -56 -20 -827 0 -762 1 -796 19 -824 65 -98 211 -84
247 24 4 14 10 169 13 345 6 310 7 320 26 323 33 4 96 23 155 45 208 78 379
233 478 432 108 215 128 402 71 645 -19 79 -91 229 -142 295 -84 109 -229 232
-327 277 -144 67 -183 76 -425 101 -22 2 -231 1 -465 -3z"/>
</g>
</svg>
