<?xml version="1.0" standalone="no"?>
<!DOCTYPE svg PUBLIC "-//W3C//DTD SVG 20010904//EN"
 "http://www.w3.org/TR/2001/REC-SVG-20010904/DTD/svg10.dtd">
<svg version="1.0" xmlns="http://www.w3.org/2000/svg"
 width="938.000000pt" height="234.000000pt" viewBox="0 0 938.000000 234.000000"
 preserveAspectRatio="xMidYMid meet">

<g transform="translate(0.000000,234.000000) scale(0.100000,-0.100000)"
fill="#000000" stroke="none">
<path d="M966 2324 c-560 -101 -966 -587 -966 -1154 0 -780 749 -1341 1499
-1124 188 55 352 153 497 298 228 228 344 510 344 835 0 561 -414 1048 -974
1146 -108 18 -293 18 -400 -1z m811 -425 c52 -14 108 -63 115 -104 8 -41 -9
-91 -39 -115 -75 -59 -179 19 -137 104 21 43 18 65 -11 72 -50 13 -98 -5 -146
-56 -63 -64 -101 -168 -142 -392 l-15 -78 33 -6 c40 -7 141 11 172 31 27 18
29 33 6 79 -15 32 -15 36 1 61 53 81 162 31 142 -66 -10 -51 -43 -86 -111
-120 -55 -27 -80 -33 -159 -37 l-94 -5 -17 -96 c-59 -339 -135 -524 -281 -680
-85 -90 -155 -135 -248 -158 -110 -27 -204 0 -246 70 -52 84 4 186 103 187 49
0 83 -23 97 -66 14 -42 6 -70 -26 -90 -27 -18 -32 -49 -10 -57 32 -13 90 16
142 68 84 86 129 219 193 565 17 91 41 206 54 256 l23 91 -56 50 c-82 75 -124
100 -185 114 -43 9 -60 9 -85 -1 -44 -18 -70 -56 -70 -101 0 -32 10 -49 71
-121 121 -141 144 -223 94 -325 -92 -184 -412 -192 -532 -14 -33 49 -32 133 2
166 36 37 98 30 132 -14 17 -22 15 -90 -2 -121 -22 -39 -18 -59 17 -80 66 -40
163 -19 194 42 24 47 11 82 -61 165 -91 104 -109 142 -110 228 0 59 4 78 28
117 49 84 143 133 252 133 91 -1 176 -39 263 -120 34 -32 64 -56 66 -54 2 2
18 37 35 78 128 302 335 453 548 400z"/>
<path d="M6445 1903 c-76 -17 -101 -28 -134 -59 -61 -54 -84 -119 -89 -251
l-5 -113 -103 0 -104 0 0 -44 c0 -28 7 -52 19 -67 17 -21 29 -24 105 -28 l86
-3 0 -374 0 -374 60 0 c105 0 100 -20 100 395 l0 355 79 0 c126 0 161 23 161
105 l0 35 -121 0 -122 0 8 93 c4 50 13 107 20 124 17 41 69 73 117 73 71 0
108 37 108 105 0 19 -7 23 -46 29 -51 7 -107 6 -139 -1z"/>
<path d="M3210 1856 c-119 -35 -192 -92 -231 -179 -19 -42 -24 -69 -24 -142 0
-79 4 -97 27 -141 39 -75 104 -125 263 -204 159 -78 210 -116 236 -174 21 -46
25 -120 8 -163 -14 -38 -66 -90 -114 -116 -58 -30 -175 -35 -278 -11 l-80 18
-24 -28 c-18 -21 -23 -38 -21 -65 l3 -36 85 -22 c102 -26 194 -28 298 -7 103
21 175 58 227 116 59 65 80 130 80 243 0 78 -4 97 -28 147 -42 86 -114 145
-277 228 -199 100 -240 141 -240 237 0 70 26 112 91 148 52 28 59 30 182 30
145 0 157 6 157 76 0 47 -8 49 -170 54 -86 3 -139 0 -170 -9z"/>
<path d="M4987 1484 c-32 -10 -66 -32 -102 -67 l-53 -52 -6 40 c-7 55 -34 75
-102 75 l-54 0 0 -445 0 -445 59 0 c43 0 65 5 82 19 24 19 24 20 29 288 5 249
7 271 27 316 49 107 102 147 193 147 72 0 107 -21 136 -83 24 -52 24 -55 24
-369 l0 -318 59 0 c44 0 65 5 85 21 l26 20 0 217 c0 241 9 322 44 391 45 87
98 121 190 121 63 0 95 -21 129 -83 21 -41 22 -54 25 -364 l3 -323 60 0 c51 0
64 4 85 25 l26 26 -4 312 c-3 291 -5 315 -25 365 -32 78 -66 117 -130 149 -51
24 -69 28 -148 28 -78 0 -97 -4 -140 -27 -55 -28 -89 -57 -121 -102 l-22 -30
-15 30 c-20 37 -72 87 -117 110 -48 24 -179 29 -243 8z"/>
<path d="M6961 1484 c-196 -53 -321 -225 -321 -444 0 -137 38 -237 123 -328
89 -93 201 -142 325 -142 266 1 452 194 452 470 0 136 -36 234 -118 322 -55
59 -111 94 -193 119 -73 23 -190 24 -268 3z m238 -144 c180 -91 224 -390 82
-552 -49 -56 -104 -78 -192 -78 -64 0 -81 4 -127 31 -59 33 -101 90 -128 171
-23 69 -16 215 13 279 27 61 88 128 138 150 56 26 163 25 214 -1z"/>
<path d="M8033 1486 c-58 -19 -105 -50 -147 -96 l-36 -40 0 40 c0 62 -33 90
-105 90 l-55 0 0 -445 0 -445 54 0 c30 0 62 3 70 6 36 14 41 45 46 304 5 214
9 261 23 295 50 112 122 165 226 165 94 0 145 -35 177 -120 15 -38 18 -94 22
-347 l4 -303 59 0 c65 0 93 17 105 65 3 13 4 147 2 297 -4 245 -7 280 -26 339
-28 84 -83 148 -154 179 -65 29 -201 37 -265 16z"/>
<path d="M3712 1468 c3 -7 78 -215 168 -462 l163 -449 -18 -54 c-32 -94 -107
-163 -178 -163 -50 0 -78 -27 -84 -81 l-5 -46 61 -7 c148 -17 249 41 321 184
23 45 400 1070 400 1087 0 2 -29 3 -64 3 -104 0 -98 10 -228 -380 -62 -187
-115 -340 -118 -340 -3 0 -56 155 -118 345 -105 322 -114 346 -142 360 -37 19
-164 21 -158 3z"/>
<path d="M8550 1477 c0 -1 75 -207 166 -457 164 -451 166 -455 154 -500 -26
-101 -106 -180 -183 -180 -50 0 -78 -27 -84 -81 l-5 -46 62 -7 c155 -18 264
51 335 211 21 47 385 1048 385 1059 0 2 -29 4 -64 4 -104 0 -98 10 -228 -380
-62 -187 -115 -340 -118 -340 -3 0 -52 145 -110 323 -57 177 -108 332 -114
345 -15 35 -57 52 -131 52 -36 0 -65 -1 -65 -3z"/>
</g>
</svg>
